<svg version="1.1" id="Layer_1" xmlns="http://www.w3.org/2000/svg" x="0" y="0" xml:space="preserve" viewBox="77.58 220.1 619.92 134.63">  <defs></defs>  <linearGradient id="SVGID_1_" gradientUnits="userSpaceOnUse" x1="116.502" y1="340.982" x2="139.062" y2="234.847">    <stop offset="0" stop-color="#4d9a47"></stop>    <stop offset="1" stop-color="#a5cd39"></stop>  </linearGradient>  <path d="M164.7 335.8c-1.1-2.1-6.4-12-10.8-26.1-4.4-13.8-8.7-30.7-10.8-39.6-4.4-18.2-11.6-34.9-33.2-41.4-9.6-2.9-32.3-2.2-32.3-2.2s15.6 9.9 24.4 26.3c5.6 10.4 6.9 19.7 7.8 22.7 17.3.3 24.7 8.2 34.7 26.2 2.2 3.9 4.5 8 6.7 11.8-3.2-4.9-6.8-10.3-10-14.6-7.2-9.8-16.5-19-30.8-19.3-6.9-.2-3.8.1-13.8-.1 15.5 8.6 16.7 29.9 26.4 43.7 9 12.7 16.9 23.2 39.7 27.7 3.2.6 10.8 1.8 14.3 1.6-4.5-4.1-8.2-9.6-12.3-16.7z" fill="url(#SVGID_1_)"></path>  <path class="st1" d="M185.5 226.5l-24 92.2c4.9 12.3 9.5 22.5 16.9 29.3l26.4-101 .2-.8c.3-1.2.4-2.4.4-3.6 0-9.7-8.7-15.9-19.9-16.1M95.8 283.4l-17.7 67.5h24.6l10.1-39c-4.6-13-9.2-22.9-17-28.5M278.5 350.8h-17c-3.1 0-4.9-.8-5.2-2.5-.4-1.7-.1-4.1.7-7.3-2.9 2.8-6.8 5.5-11.8 7.9-5 2.4-11.2 3.6-18.7 3.6-8.8 0-14.9-1.8-18.3-5.3-3.3-3.5-4.9-8.1-4.6-13.8.1-2.8.5-5.9 1.2-9.3.7-3.3 1.4-6.6 2.3-9.8l13.4-51.5c.3-.1 1.3-.3 3.1-.5s3.7-.3 5.7-.3 3.9.2 5.8.6c1.9.4 3.5 1.1 4.9 2.1 1.3 1.1 2.3 2.6 2.8 4.5s.3 4.4-.5 7.5l-9.5 36.4c-.7 2.9-1.3 5.4-1.7 7.7-.4 2.3-.4 4.3-.1 5.9.4 1.7 1.3 3 2.9 3.9 1.6.9 4 1.4 7.2 1.4 4.6 0 8.8-.9 12.6-2.8 3.8-1.9 6.1-4.3 6.8-7.1l15.4-59.3c.3-.1 1.3-.3 3.1-.5s3.7-.3 5.7-.3 3.9.2 5.8.7 3.5 1.2 4.8 2.4c1.3 1.2 2.2 2.8 2.7 4.8s.3 4.6-.5 7.7l-19 73.2zM304.2 337.5c-.2-2.5-.1-5.1.4-7.8s1-5.4 1.8-8.2l22.5-86.2 2.9-.4c.9-.1 1.9-.2 2.9-.3 1-.1 2-.1 3-.1 2 0 3.9.2 5.8.6 1.9.4 3.5 1.1 4.8 2.2 1.3 1.1 2.2 2.6 2.7 4.6.5 1.9.3 4.4-.5 7.5l-3.4 13 26.2.1-4.9 19-26.2-.1-10.4 39.8c-2.3 8.7.2 13 7.3 13 1.7 0 3.5-.3 5.2-.8 1.7-.6 3.3-1.2 4.8-1.8 1.5-.7 2.8-1.4 3.8-2.1 1.1-.7 1.8-1.3 2.3-1.7 1.2 2.7 2 5.1 2.5 7.1s.5 3.8 0 5.6c-.4 1.6-1.5 3.2-3.2 4.7-1.7 1.5-3.9 3-6.6 4.3-2.7 1.3-5.8 2.3-9.4 3.1-3.6.8-7.4 1.2-11.3 1.2-7.8 0-13.5-1.5-17-4.5-3.5-3.1-5.5-7-6-11.8M412.1 271.9c1-1.1 2.4-2.3 4-3.7 1.7-1.4 3.5-2.6 5.5-3.7s4.2-2 6.6-2.8c2.4-.7 4.8-1.1 7.3-1.1 1.5 0 3 .1 4.7.4 1.6.3 3.1.7 4.3 1.4 1.3.7 2.2 1.6 2.7 2.8.6 1.2.6 2.6.2 4.4-.7 2.6-2.2 5.7-4.5 9.3-2.3 3.6-4.5 6.6-6.5 9.1-1.7-1.7-3.4-3.1-5.3-4-1.9-.9-4.2-1.4-7.1-1.4-3.9 0-7.4 1.1-10.6 3.3-3.2 2.2-5.2 4.9-6 8l-14.9 57.2-25.4-.1 22.9-87.9 2.3-.4c.8-.1 1.7-.2 2.7-.3 1-.1 2.2-.1 3.6-.1 4 0 7.2.8 9.8 2.3 2.5 1.7 3.7 4.1 3.7 7.3M494.4 233.6c-1 4-3.2 7.2-6.5 9.7-3.3 2.5-6.9 3.7-10.6 3.7-3.9 0-6.8-1.3-8.7-3.7-2-2.5-2.4-5.7-1.4-9.7 1-4 3.2-7.2 6.5-9.7 3.3-2.5 6.9-3.8 10.7-3.8 3.7 0 6.6 1.3 8.6 3.8 1.9 2.5 2.4 5.8 1.4 9.7m-31.1 118.8c-.6.2-1.7.4-3.5.5-1.8.1-3.7.2-5.6.2-4.9 0-8.5-1-11.1-3.1-2.5-2.1-3-6.2-1.4-12.4l19.4-74.3c.3-.1 1.3-.3 3.1-.5s3.7-.3 5.7-.3 3.9.2 5.8.6c1.9.4 3.5 1.1 4.9 2.1 1.3 1.1 2.3 2.6 2.8 4.5s.3 4.4-.5 7.5l-19.6 75.2zM550.1 297.9c1.5-5.9 1.7-10.8.3-14.5-1.3-3.7-5-5.6-11-5.6-5.2 0-9.8 1.7-13.7 5.3-3.9 3.5-6.7 8.4-8.3 14.8h32.7zm-18.2 37.7c3.1 0 5.9-.3 8.5-1 2.5-.7 4.9-1.5 7-2.5 2.1-1 4-2.1 5.7-3.2 1.7-1.2 3.2-2.3 4.6-3.2 1 1.9 1.9 4.2 2.8 7.2.9 2.9 1.1 5.3.6 7.2-.7 2.7-2.9 5.2-6.6 7.4-3.1 2-7.3 3.7-12.4 5.1-5.2 1.4-11 2.1-17.5 2.1-5.9 0-11.4-.8-16.7-2.3-5.3-1.5-9.7-4.1-13.1-7.8-3.5-3.7-5.7-8.7-6.8-15-1.1-6.3-.4-14.2 2.1-23.7 2-7.8 5-14.5 8.9-20.1 3.9-5.6 8.4-10.3 13.4-14 5-3.7 10.3-6.4 15.9-8.1 5.6-1.7 11-2.6 16.4-2.6 7 0 12.6 1.1 16.9 3.3 4.3 2.2 7.5 5.1 9.6 8.8 2.1 3.7 3.2 7.9 3.4 12.6.1 4.7-.5 9.7-1.8 14.9-.2.7-.4 1.6-.7 2.6s-.6 2-.9 3.2c-.4 1.1-.7 2.2-1 3.3-.3 1.1-.6 1.9-.9 2.5l-54.9-.1c-1.3 6.8-.6 12.5 1.9 17 2.2 4.1 7.5 6.4 15.6 6.4M601.9 351.1l-25.6-.1 22.8-87.4 2.3-.4c.8-.1 1.7-.2 2.7-.3 1-.1 2.2-.1 3.6-.1 4 0 7.3.7 9.8 2.2 2.6 1.4 3.7 3.9 3.6 7.5 2.9-2.8 6.8-5.5 11.8-7.9 5-2.4 11.2-3.6 18.7-3.6 8.8 0 14.9 1.8 18.3 5.3 3.3 3.5 4.9 8.1 4.6 13.8-.1 2.8-.5 5.9-1.2 9.3-.7 3.3-1.4 6.6-2.3 9.9L657.5 351H632l13.2-50.7c.7-2.7 1.3-5.3 1.7-7.6.4-2.4.5-4.4.1-6-.4-1.7-1.3-3-2.9-3.9-1.6-.9-4-1.4-7.2-1.4-4.6 0-8.8.9-12.6 2.8-3.8 1.9-6.1 4.3-6.8 7.1l-15.6 59.8z"></path>  <g>    <path class="st1" d="M697.5 268c0 3.3-2.6 6-6 6s-6.1-2.6-6.1-6c0-3.3 2.7-5.9 6.1-5.9 3.4 0 6 2.6 6 5.9zm-10.6 0c0 2.6 1.9 4.7 4.6 4.7 2.6 0 4.5-2.1 4.5-4.7s-1.9-4.8-4.5-4.8c-2.6.1-4.6 2.2-4.6 4.8zm3.6 3.1h-1.4v-5.9c.5-.1 1.3-.2 2.3-.2 1.1 0 1.6.2 2.1.4.3.3.6.7.6 1.3 0 .6-.5 1.2-1.2 1.4v.1c.6.2.9.6 1.1 1.4.2.9.3 1.3.4 1.5h-1.5c-.2-.2-.3-.8-.5-1.4-.1-.6-.5-.9-1.2-.9h-.6v2.3zm.1-3.4h.6c.8 0 1.4-.3 1.4-.9 0-.5-.4-.9-1.3-.9-.4 0-.6 0-.8.1v1.7z"></path>  </g></svg>
